<mxfile><diagram name="C4-1 Context"><mxGraphModel><root><mxCell id="0"/><mxCell id="1" parent="0"/><mxCell id="2" value="User" style="shape=actor;" vertex="1" parent="1"><mxGeometry x="20" y="80" width="60" height="80" as="geometry"/></mxCell><mxCell id="3" value="Admin" style="shape=actor;" vertex="1" parent="1"><mxGeometry x="20" y="200" width="60" height="80" as="geometry"/></mxCell><mxCell id="4" value="Web Portal" style="shape=rectangle;" vertex="1" parent="1"><mxGeometry x="200" y="100" width="100" height="60" as="geometry"/></mxCell><mxCell id="5" value="Admin Panel" style="shape=rectangle;" vertex="1" parent="1"><mxGeometry x="200" y="200" width="100" height="60" as="geometry"/></mxCell><mxCell id="6" value="TVmaze API" style="shape=ellipse;" vertex="1" parent="1"><mxGeometry x="400" y="100" width="100" height="60" as="geometry"/></mxCell><mxCell id="7" value="TMDb API" style="shape=ellipse;" vertex="1" parent="1"><mxGeometry x="400" y="200" width="100" height="60" as="geometry"/></mxCell><mxCell id="8" value="Email / Web Push" style="shape=hexagon;" vertex="1" parent="1"><mxGeometry x="200" y="300" width="120" height="60" as="geometry"/></mxCell></root></mxGraphModel></diagram></mxfile>